name rise32.9588peak41.5061fall63.4684.mot
datacolumns 19
datarows 33
range 20.90159600000000 20.95492500000000
endheader
time	ground_force1_vx	ground_force1_vy	ground_force1_vz	ground_force1_px	ground_force1_py	ground_force1_pz	ground_force2_vx	ground_force2_vy	ground_force2_vz	ground_force2_px	ground_force2_py	ground_force2_pz	ground_torque1_x	ground_torque1_y	ground_torque1_z	ground_torque2_x	ground_torque2_y	ground_torque2_z	
20.90159600000000	-0.39381100000000	711.72164799999996	39.97022100000000	0.14606300000000	0.00000000000000	0.10840900000000	0.00000000000000	0.00000000000000	0.00000000000000	0.00000000000000	0.00000000000000	0.00000000000000	0.00000000000000	10.88936700000000	0.00000000000000	0.00000000000000	0.00000000000000	0.00000000000000	
20.90325000000000	-0.70356800000000	712.54365499999994	40.03588100000000	0.14517500000000	0.00000000000000	0.10840200000000	0.00000000000000	0.00000000000000	0.00000000000000	0.00000000000000	0.00000000000000	0.00000000000000	0.00000000000000	10.92733400000000	0.00000000000000	0.00000000000000	0.00000000000000	0.00000000000000	
20.90492400000000	-1.02495800000000	713.40844300000003	40.10649900000000	0.14426600000000	0.00000000000000	0.10839800000000	0.00000000000000	0.00000000000000	0.00000000000000	0.00000000000000	0.00000000000000	0.00000000000000	0.00000000000000	10.96884900000000	0.00000000000000	0.00000000000000	0.00000000000000	0.00000000000000	
20.90658700000000	-1.35833200000000	714.31501300000002	40.18190300000000	0.14333500000000	0.00000000000000	0.10839500000000	0.00000000000000	0.00000000000000	0.00000000000000	0.00000000000000	0.00000000000000	0.00000000000000	0.00000000000000	11.01388100000000	0.00000000000000	0.00000000000000	0.00000000000000	0.00000000000000	
20.90825700000000	-1.70399300000000	715.26236500000005	40.26191700000000	0.14238400000000	0.00000000000000	0.10839300000000	0.00000000000000	0.00000000000000	0.00000000000000	0.00000000000000	0.00000000000000	0.00000000000000	0.00000000000000	11.06239200000000	0.00000000000000	0.00000000000000	0.00000000000000	0.00000000000000	
20.90992100000000	-2.06219300000000	716.24950200000001	40.34636700000000	0.14141300000000	0.00000000000000	0.10839400000000	0.00000000000000	0.00000000000000	0.00000000000000	0.00000000000000	0.00000000000000	0.00000000000000	0.00000000000000	11.11434100000000	0.00000000000000	0.00000000000000	0.00000000000000	0.00000000000000	
20.91159200000000	-2.43314000000000	717.27543000000003	40.43508000000000	0.14042400000000	0.00000000000000	0.10839500000000	0.00000000000000	0.00000000000000	0.00000000000000	0.00000000000000	0.00000000000000	0.00000000000000	0.00000000000000	11.16968200000000	0.00000000000000	0.00000000000000	0.00000000000000	0.00000000000000	
20.91325800000000	-2.81698800000000	718.33916299999999	40.52788100000000	0.13941700000000	0.00000000000000	0.10839800000000	0.00000000000000	0.00000000000000	0.00000000000000	0.00000000000000	0.00000000000000	0.00000000000000	0.00000000000000	11.22836400000000	0.00000000000000	0.00000000000000	0.00000000000000	0.00000000000000	
20.91492100000000	-3.21384400000000	719.43972199999996	40.62459800000000	0.13839500000000	0.00000000000000	0.10840200000000	0.00000000000000	0.00000000000000	0.00000000000000	0.00000000000000	0.00000000000000	0.00000000000000	0.00000000000000	11.29033100000000	0.00000000000000	0.00000000000000	0.00000000000000	0.00000000000000	
20.91658700000000	-3.62376900000000	720.57614100000001	40.72505800000000	0.13735800000000	0.00000000000000	0.10840700000000	0.00000000000000	0.00000000000000	0.00000000000000	0.00000000000000	0.00000000000000	0.00000000000000	0.00000000000000	11.35552400000000	0.00000000000000	0.00000000000000	0.00000000000000	0.00000000000000	
20.91825400000000	-4.04677300000000	721.74746500000003	40.82909000000000	0.13630700000000	0.00000000000000	0.10841300000000	0.00000000000000	0.00000000000000	0.00000000000000	0.00000000000000	0.00000000000000	0.00000000000000	0.00000000000000	11.42387700000000	0.00000000000000	0.00000000000000	0.00000000000000	0.00000000000000	
20.91992400000000	-4.48282100000000	722.95275000000004	40.93652600000000	0.13524600000000	0.00000000000000	0.10841900000000	0.00000000000000	0.00000000000000	0.00000000000000	0.00000000000000	0.00000000000000	0.00000000000000	0.00000000000000	11.49532000000000	0.00000000000000	0.00000000000000	0.00000000000000	0.00000000000000	
20.92158700000000	-4.93183100000000	724.19106799999997	41.04719900000000	0.13417400000000	0.00000000000000	0.10842700000000	0.00000000000000	0.00000000000000	0.00000000000000	0.00000000000000	0.00000000000000	0.00000000000000	0.00000000000000	11.56977900000000	0.00000000000000	0.00000000000000	0.00000000000000	0.00000000000000	
20.92325300000000	-5.39367600000000	725.46150200000000	41.16094200000000	0.13309400000000	0.00000000000000	0.10843500000000	0.00000000000000	0.00000000000000	0.00000000000000	0.00000000000000	0.00000000000000	0.00000000000000	0.00000000000000	11.64717300000000	0.00000000000000	0.00000000000000	0.00000000000000	0.00000000000000	
20.92492300000000	-5.86818800000000	726.76314800000000	41.27759400000000	0.13200800000000	0.00000000000000	0.10844300000000	0.00000000000000	0.00000000000000	0.00000000000000	0.00000000000000	0.00000000000000	0.00000000000000	0.00000000000000	11.72741700000000	0.00000000000000	0.00000000000000	0.00000000000000	0.00000000000000	
20.92658500000000	-6.35515300000000	728.09511399999997	41.39699500000000	0.13091600000000	0.00000000000000	0.10845100000000	0.00000000000000	0.00000000000000	0.00000000000000	0.00000000000000	0.00000000000000	0.00000000000000	0.00000000000000	11.81042100000000	0.00000000000000	0.00000000000000	0.00000000000000	0.00000000000000	
20.92826000000000	-6.85432000000000	729.45651899999996	41.51898700000000	0.12982100000000	0.00000000000000	0.10846000000000	0.00000000000000	0.00000000000000	0.00000000000000	0.00000000000000	0.00000000000000	0.00000000000000	0.00000000000000	11.89609000000000	0.00000000000000	0.00000000000000	0.00000000000000	0.00000000000000	
20.92992000000000	-7.36539500000000	730.84649000000002	41.64341600000000	0.12872500000000	0.00000000000000	0.10846900000000	0.00000000000000	0.00000000000000	0.00000000000000	0.00000000000000	0.00000000000000	0.00000000000000	0.00000000000000	11.98432300000000	0.00000000000000	0.00000000000000	0.00000000000000	0.00000000000000	
20.93158800000000	-7.88805000000000	732.26416400000005	41.77013300000000	0.12762900000000	0.00000000000000	0.10847800000000	0.00000000000000	0.00000000000000	0.00000000000000	0.00000000000000	0.00000000000000	0.00000000000000	0.00000000000000	12.07501500000000	0.00000000000000	0.00000000000000	0.00000000000000	0.00000000000000	
20.93325400000000	-8.42192000000000	733.70867799999996	41.89899100000000	0.12653400000000	0.00000000000000	0.10848600000000	0.00000000000000	0.00000000000000	0.00000000000000	0.00000000000000	0.00000000000000	0.00000000000000	0.00000000000000	12.16805400000000	0.00000000000000	0.00000000000000	0.00000000000000	0.00000000000000	
20.93492200000000	-8.96660500000000	735.17917499999999	42.02984600000000	0.12544200000000	0.00000000000000	0.10849500000000	0.00000000000000	0.00000000000000	0.00000000000000	0.00000000000000	0.00000000000000	0.00000000000000	0.00000000000000	12.26332400000000	0.00000000000000	0.00000000000000	0.00000000000000	0.00000000000000	
20.93659500000000	-9.52167600000000	736.67479700000001	42.16255900000000	0.12435600000000	0.00000000000000	0.10850200000000	0.00000000000000	0.00000000000000	0.00000000000000	0.00000000000000	0.00000000000000	0.00000000000000	0.00000000000000	12.36070400000000	0.00000000000000	0.00000000000000	0.00000000000000	0.00000000000000	
20.93825700000000	-10.08667200000000	738.19467899999995	42.29699500000000	0.12327500000000	0.00000000000000	0.10851000000000	0.00000000000000	0.00000000000000	0.00000000000000	0.00000000000000	0.00000000000000	0.00000000000000	0.00000000000000	12.46006800000000	0.00000000000000	0.00000000000000	0.00000000000000	0.00000000000000	
20.93992000000000	-10.66110400000000	739.73795099999995	42.43302400000000	0.12220100000000	0.00000000000000	0.10851700000000	0.00000000000000	0.00000000000000	0.00000000000000	0.00000000000000	0.00000000000000	0.00000000000000	0.00000000000000	12.56128300000000	0.00000000000000	0.00000000000000	0.00000000000000	0.00000000000000	
20.94158400000000	-11.24445700000000	741.30373199999997	42.57052000000000	0.12113600000000	0.00000000000000	0.10852300000000	0.00000000000000	0.00000000000000	0.00000000000000	0.00000000000000	0.00000000000000	0.00000000000000	0.00000000000000	12.66421500000000	0.00000000000000	0.00000000000000	0.00000000000000	0.00000000000000	
20.94325400000000	-11.83619200000000	742.89112399999999	42.70936000000000	0.12008000000000	0.00000000000000	0.10852900000000	0.00000000000000	0.00000000000000	0.00000000000000	0.00000000000000	0.00000000000000	0.00000000000000	0.00000000000000	12.76872000000000	0.00000000000000	0.00000000000000	0.00000000000000	0.00000000000000	
20.94491900000000	-12.43575000000000	744.49921200000006	42.84942800000000	0.11903500000000	0.00000000000000	0.10853400000000	0.00000000000000	0.00000000000000	0.00000000000000	0.00000000000000	0.00000000000000	0.00000000000000	0.00000000000000	12.87465400000000	0.00000000000000	0.00000000000000	0.00000000000000	0.00000000000000	
20.94658800000000	-13.04254900000000	746.12705600000004	42.99061100000000	0.11800200000000	0.00000000000000	0.10853800000000	0.00000000000000	0.00000000000000	0.00000000000000	0.00000000000000	0.00000000000000	0.00000000000000	0.00000000000000	12.98186600000000	0.00000000000000	0.00000000000000	0.00000000000000	0.00000000000000	
20.94825100000000	-13.65599000000000	747.77368999999999	43.13280100000000	0.11698100000000	0.00000000000000	0.10854200000000	0.00000000000000	0.00000000000000	0.00000000000000	0.00000000000000	0.00000000000000	0.00000000000000	0.00000000000000	13.09020100000000	0.00000000000000	0.00000000000000	0.00000000000000	0.00000000000000	
20.94992400000000	-14.27545800000000	749.43811500000004	43.27589400000000	0.11597300000000	0.00000000000000	0.10854400000000	0.00000000000000	0.00000000000000	0.00000000000000	0.00000000000000	0.00000000000000	0.00000000000000	0.00000000000000	13.19949900000000	0.00000000000000	0.00000000000000	0.00000000000000	0.00000000000000	
20.95158900000000	-14.90032300000000	751.11929799999996	43.41979300000000	0.11497900000000	0.00000000000000	0.10854600000000	0.00000000000000	0.00000000000000	0.00000000000000	0.00000000000000	0.00000000000000	0.00000000000000	0.00000000000000	13.30959900000000	0.00000000000000	0.00000000000000	0.00000000000000	0.00000000000000	
20.95325300000000	-15.52994300000000	752.81616499999996	43.56440300000000	0.11399800000000	0.00000000000000	0.10854700000000	0.00000000000000	0.00000000000000	0.00000000000000	0.00000000000000	0.00000000000000	0.00000000000000	0.00000000000000	13.42033100000000	0.00000000000000	0.00000000000000	0.00000000000000	0.00000000000000	
20.95492500000000	-16.16366500000000	754.52759900000001	43.70963400000000	0.11303300000000	0.00000000000000	0.10854700000000	0.00000000000000	0.00000000000000	0.00000000000000	0.00000000000000	0.00000000000000	0.00000000000000	0.00000000000000	13.53152700000000	0.00000000000000	0.00000000000000	0.00000000000000	0.00000000000000	
